<?xml version="1.0" encoding="UTF-8" standalone="no"?>
<svg id="svg2" xmlns:rdf="http://www.w3.org/1999/02/22-rdf-syntax-ns#" xmlns="http://www.w3.org/2000/svg" height="90.525mm" width="154.1mm" version="1.1" xmlns:cc="http://creativecommons.org/ns#" xmlns:xlink="http://www.w3.org/1999/xlink" viewBox="0 0 546.04078 320.75742" xmlns:dc="http://purl.org/dc/elements/1.1/">
<defs id="defs4">
<linearGradient id="linearGradient4229" y2="486.71" gradientUnits="userSpaceOnUse" x2="352.54" y1="573.51" x1="353.03">
<stop id="stop4225" stop-color="#e19d85" offset="0"/>
<stop id="stop4227" stop-color="#d5552a" stop-opacity="0" offset="1"/>
</linearGradient>
<linearGradient id="linearGradient4245" y2="820.9" gradientUnits="userSpaceOnUse" x2="539.72" y1="642.33" x1="204.9">
<stop id="stop4241" stop-color="#ecaf99" offset="0"/>
<stop id="stop4243" stop-color="#e1bbb0" offset="1"/>
</linearGradient>
<linearGradient id="linearGradient4265" y2="854.54" gradientUnits="userSpaceOnUse" x2="-129.28" y1="725.97" x1="-252.27">
<stop id="stop4261" stop-color="#bababa" offset="0"/>
<stop id="stop4263" stop-color="#fff" offset="1"/>
</linearGradient>
</defs>
<g id="layer1" transform="translate(-204.9 -483.79)">
<path id="path4164" d="m236.07 623.43 40.357 144.29c19.524 38.69 149.17 40.833 171.43 0l37.85-147.86c7.0238-4.948 14.048-7.4786 21.071-21.429l5-66.786c-17.472-61.804-284.79-56.918-304.64 0l7.5 67.5c3.3607 9.3559 9.5203 17.779 21.429 24.286z" fill-rule="evenodd" stroke="#7c7c7c" stroke-width="4.4" fill="url(#linearGradient4245)"/>
<path id="path4185" d="m358.6 500.6a135.58 39.106 0 0 0 -135.58 39.105 135.58 39.106 0 0 0 0.0137 0.11523c0.79215 0.6854 1.5215 1.3976 2.3652 2.0606 1.8017 1.4156 3.7186 2.7803 5.7441 4.0938s4.1586 2.5771 6.3926 3.7891c2.2339 1.212 4.5692 2.3733 6.9961 3.4844 4.8539 2.2222 10.078 4.2419 15.611 6.0644 5.5334 1.8225 11.375 3.447 17.465 4.875 6.0896 1.428 12.427 2.6607 18.949 3.6992 6.5225 1.0385 13.23 1.8829 20.062 2.5371 6.8321 0.6542 13.788 1.1176 20.807 1.3926 7.0184 0.27498 14.1 0.36084 21.182 0.26172 7.0815-0.0991 14.162-0.38344 21.184-0.85157 7.0212-0.46813 13.983-1.1191 20.82-1.9512 6.8377-0.83202 13.553-1.8443 20.084-3.0352 6.5308-1.1908 12.876-2.561 18.977-4.1055 6.1007-1.5445 11.957-3.2632 17.504-5.1562 5.5473-1.8931 10.788-3.9607 15.658-6.1973 2.4353-1.1183 4.7785-2.2773 7.0215-3.4805s4.3846-2.4489 6.4199-3.7363 3.9632-2.6172 5.7754-3.9883c0.68051-0.51486 1.2606-1.0652 1.9082-1.5918a135.58 39.106 0 0 0 -135.36 -37.385z" fill="url(#linearGradient4229)"/>
<g stroke="#7c7c7c">
<path id="path4183" d="m245.36 625.58c69.175 24.78 158.45 21.62 230-2.8571" stroke-linecap="round" stroke-width="3.9" fill="none"/>
<path id="path4166-0" d="m221.22 539.15c50 48.588 226.43 44.387 276.79-2.1429" stroke-linecap="round" stroke-width="4.2" fill="none"/>
<g id="g4269" fill-rule="evenodd" transform="translate(815.38 -75.13)" stroke-width="2.5">
<path id="path4249" d="m-270 845.22c-7.189-13.688 12.619-52.332 58.601-107.91 12.559 7.2106 5.5039 35.503 38.354 26.336l33.664-23.838 9.5816 13.536-32.322 23.838c-11.62 13.108 8.5264 16.271 14.806 34.848-56.962 29.039-104.37 48.131-122.68 33.189z" fill="url(#linearGradient4265)"/>
<path id="path4247" d="m-155.09 747.95c-0.69629 16.01 14.632 15.29 14.632 15.29l75.313-53.449c1.5075-13.271-5.1443-18.382-17.165-18.125z" fill="#dfa460"/>
</g>
<path id="path4267" d="m471.88 792.99c84.475 17.703 149.8 11.471 210.94 0 0 0 3.3943-23.981-9.2498-33.683-9.95-7.6349-40.75-12.5-40.75-12.5s-10.401-6.6097-19.096-8.9396c-12.177-3.2629-34.188 12.132-34.188 12.132s-26.062-7.6043-37.53-4.5313c-13.444 3.6024-28.744 18.588-28.744 18.588s-19.123-6.7398-28.098 0.78125c-9.1296 7.6508-13.281 28.152-13.281 28.152z" fill-rule="evenodd" stroke-width="2.3" fill="#af8656"/>
</g>
</g>
</svg>
