<?xml version="1.0" encoding="UTF-8" standalone="no"?>
<svg id="svg2" xmlns:rdf="http://www.w3.org/1999/02/22-rdf-syntax-ns#" xmlns="http://www.w3.org/2000/svg" height="78.964mm" width="132.95mm" version="1.1" xmlns:cc="http://creativecommons.org/ns#" xmlns:xlink="http://www.w3.org/1999/xlink" viewBox="0 0 471.08254 279.79276" xmlns:dc="http://purl.org/dc/elements/1.1/">
<defs id="defs4">
<linearGradient id="linearGradient4229" y2="486.71" gradientUnits="userSpaceOnUse" x2="352.54" y1="573.51" x1="353.03">
<stop id="stop4225" stop-color="#e19d85" offset="0"/>
<stop id="stop4227" stop-color="#d5552a" stop-opacity="0" offset="1"/>
</linearGradient>
<linearGradient id="linearGradient4245" y2="820.9" gradientUnits="userSpaceOnUse" x2="539.72" y1="642.33" x1="204.9">
<stop id="stop4241" stop-color="#ecaf99" offset="0"/>
<stop id="stop4243" stop-color="#e1bbb0" offset="1"/>
</linearGradient>
</defs>
<g id="layer1" transform="translate(-36.423 -555)">
<g id="g4194" transform="matrix(.19766 -.55173 .55173 .19766 -11.828 833.5)">
<path id="path4164" d="m236.07 623.43 40.357 144.29c19.524 38.69 149.17 40.833 171.43 0l37.85-147.86c7.0238-4.948 14.048-7.4786 21.071-21.429l5-66.786c-17.472-61.804-284.79-56.918-304.64 0l7.5 67.5c3.3607 9.3559 9.5203 17.779 21.429 24.286z" fill-rule="evenodd" stroke="#7c7c7c" stroke-width="4.4" fill="url(#linearGradient4245)"/>
<path id="path4185" d="m358.6 500.6a135.58 39.106 0 0 0 -135.58 39.105 135.58 39.106 0 0 0 0.0137 0.11523c0.79215 0.6854 1.5215 1.3976 2.3652 2.0606 1.8017 1.4156 3.7186 2.7803 5.7441 4.0938s4.1586 2.5771 6.3926 3.7891c2.2339 1.212 4.5692 2.3733 6.9961 3.4844 4.8539 2.2222 10.078 4.2419 15.611 6.0644 5.5334 1.8225 11.375 3.447 17.465 4.875 6.0896 1.428 12.427 2.6607 18.949 3.6992 6.5225 1.0385 13.23 1.8829 20.062 2.5371 6.8321 0.6542 13.788 1.1176 20.807 1.3926 7.0184 0.27498 14.1 0.36084 21.182 0.26172 7.0815-0.0991 14.162-0.38344 21.184-0.85157 7.0212-0.46813 13.983-1.1191 20.82-1.9512 6.8377-0.83202 13.553-1.8443 20.084-3.0352 6.5308-1.1908 12.876-2.561 18.977-4.1055 6.1007-1.5445 11.957-3.2632 17.504-5.1562 5.5473-1.8931 10.788-3.9607 15.658-6.1973 2.4353-1.1183 4.7785-2.2773 7.0215-3.4805s4.3846-2.4489 6.4199-3.7363 3.9632-2.6172 5.7754-3.9883c0.68051-0.51486 1.2606-1.0652 1.9082-1.5918a135.58 39.106 0 0 0 -135.36 -37.385z" fill="url(#linearGradient4229)"/>
<path id="path4183" d="m245.36 625.58c69.175 24.78 158.45 21.62 230-2.8571" stroke="#7c7c7c" stroke-linecap="round" stroke-width="3.9" fill="none"/>
<path id="path4166-0" d="m221.22 539.15c50 48.588 226.43 44.387 276.79-2.1429" stroke="#7c7c7c" stroke-linecap="round" stroke-width="4.2" fill="none"/>
</g>
<g fill-rule="evenodd" stroke="#7c7c7c" fill="#af8656">
<path id="path4186" d="m128.95 729.8c22.845 4.4361 45.69 6.6163 68.535 0 0 0-1.3447-10.511-8.7413-13.265-4.8858-1.819-10.583-0.26075-10.583-0.26075s-4.3348-8.4038-15.453-7.707c-6.5788 0.41229-14.01 9.4112-14.01 9.4112s-9.8904-3.1153-14.421-1.5086c-6.5179 2.3117-5.3269 13.33-5.3269 13.33z" stroke-width="1.5016"/>
<path id="path4188" d="m186.63 801.59s15.094-22.091 26.562-21.875c6.2706 0.11827 14.062 12.5 14.062 12.5s20.824-25.983 35.938-24.258c17.295 1.9744 32.812 36.758 32.812 36.758-36.486 5.6239-72.931 1.3305-109.38-3.125z" stroke-width="2.1"/>
<path id="path4190" d="m86.783 695.89s9.935-17.94 18.923-13.968c5.326 2.354 8.0968 14.425 8.0968 14.425z" stroke-width="2.1"/>
<path id="path4192" d="m78.273 653.88s6.8904-16.493 14.734-15.662c3.0208 0.32019 7.5331 5.1415 7.5331 5.1415s6.387-3.2112 10.514-3.187c5.6677 0.0331 9.5846 6.8846 9.5846 6.8846s7.7502-7.1757 10.087-6.7478c8.1847 1.4986 8.5378 13.857 8.5378 13.857-20.33 3.8797-40.661 2.7749-60.991-0.28624z" stroke-width="1.5346"/>
<g stroke-width="1.4298">
<path id="path4190-6" d="m143.18 780.54s-7.6297-10.83-14.532-8.4315c-4.0902 1.421-6.2181 8.7078-6.2181 8.7078z"/>
<path id="path4190-6-9" d="m103.37 610.39s-7.6297-10.83-14.532-8.4315c-4.0902 1.421-6.2181 8.7078-6.2181 8.7078z"/>
<path id="path4190-6-6" d="m60.482 596.41s-7.6297-10.83-14.532-8.4315c-4.0902 1.421-6.2181 8.7078-6.2181 8.7078z"/>
</g>
<path id="path4190-4" d="m37.59 561.93s6.4223-7.8606 12.233-6.12c3.4429 1.0314 5.234 6.3205 5.234 6.3205z" stroke-width="1.1176"/>
</g>
</g>
</svg>
