<?xml version="1.0" encoding="UTF-8" standalone="no"?>
<svg id="svg2" xmlns:rdf="http://www.w3.org/1999/02/22-rdf-syntax-ns#" xmlns="http://www.w3.org/2000/svg" height="71.203mm" width="508.75mm" version="1.1" xmlns:cc="http://creativecommons.org/ns#" xmlns:dc="http://purl.org/dc/elements/1.1/" viewBox="0 0 1802.6683 252.29424">
<g id="layer1" transform="translate(451.62 -777.76)">
<g fill="#006599" fill-rule="evenodd">
<path id="path4147" d="m-443.39 869.47c-3.7816 0.15764-8.1013 2.863-8.2246 8.2246v152.36l44.131-0.3789v-56.633c-0.0178-3.5562 2.4751-6.9388 7.0078-7.0078h120.96c23.573 0.005 36.872-7.5011 37.125-26.137v-48.361c-0.0662-9.0577-10.607-22.357-35.355-22.066zm42.787 26.904h107.48c5.8461 0.3537 9.2307 5.1667 9.1152 9.1152v22.775c-0.0608 4.8321-1.9368 11.906-12.043 12.043h-103.51c-4.9608-0.22805-8.1195-3.5255-8.3027-8.3027v-29.547c0.17697-3.4828 2.8625-6.081 7.2598-6.084z"/>
<path id="path4152" d="m-175.12 872.18v122.5c0.0982 4.3423 3.4688 8.1354 8.0625 8.0625h157.69c-0.26855 23.41-16.326 26.173-33.625 27.312h-132c-20.931 0.01-41.866 0.024-42.625-30.875v-96.125c1.4296-33.316 28.908-30.276 42.5-30.875z"/>
<path id="path4154" d="m21.851 995.94 22.804-28.815h85.97c5.5306-0.10715 5.9363-5.069 5-6.9996l-40.942-59.999 27.224-35.355 112.96 165.29h-52.492l-14.812-20.807c-5.0811-6.7877-10.202-13.343-16.438-13.438z"/>
<path id="path4156" d="m304.84 916.82c0.2213 37.74 0.0884 75.484 0.0884 113.23-13.278 0.034-42.599 1.1157-43.034-33.102l-0.70711-103.55c-0.92071-34.381 45.199-28.726 45.199-28.726l101.38 108.28v-109.34c27.263-0.1693 44.407 7.6866 44.371 29.168v103.15c0.25087 36.472-32.384 32.624-43.841 32.527z"/>
</g>
<g id="g4162" fill="#006599" transform="translate(10 -3.5684)">
<rect id="rect4158" height="116.67" width="41.012" y="916.95" x="564.98"/>
<path id="path4160" d="m476.93 891.94h213.94c2.6699-0.0611 3.4614-2.9534 3.0625-4.8125-2.8319-13.198-20.46-22.291-33.844-22.238h-147.17c-7.9551 0.32115-31.815 3.9586-39.244 20.241-0.91529 2.0058-0.10658 6.81 3.2547 6.81z" fill-rule="evenodd"/>
</g>
<g id="g4181" fill-rule="evenodd" transform="translate(-98.451 298.4)">
<path id="path4166" d="m842.48 571.51 65.931 0.029 48.656 38.175-44.901 25.986-73.295-57.578z" fill="#006599"/>
<path id="path4168" d="m969 680.11 36.5-31 96.475 75.443-3.2816 7.101-65.443-0.0442z" fill="#006599"/>
<path id="path4170" d="m834.12 722.52 5.25 7.9688h59.625c163-177.52 384.21-235.55 550.5-251.12-148.84 5.6762-417.18 49.627-615.38 243.16z" fill="#b7b8ba"/>
</g>
</g>
</svg>
